/vscmnt/brussel_pixiu_data/_data_brussel/112/vsc11236/PredSimResults/SUBJ09opt3D/trackIG/worker_02.mot
version=1
nRows=8
nColumns=50
inDegrees=yes
endheader
                time	         pelvis_tilt	         pelvis_list	     pelvis_rotation	           pelvis_tx	           pelvis_ty	           pelvis_tz	       hip_flexion_r	     hip_adduction_r	      hip_rotation_r	        knee_angle_r	       ankle_angle_r	         mtp_angle_r	       hip_flexion_l	     hip_adduction_l	      hip_rotation_l	        knee_angle_l	       ankle_angle_l	         mtp_angle_l	    lumbar_extension	      lumbar_bending	     lumbar_rotation	 ercspn_r/activation	 intobl_r/activation	 extobl_r/activation	    abd_r/activation	    add_r/activation	hamstrings_r/activation	bifemsh_r/activation	glut_max_r/activation	iliopsoas_r/activation	rect_fem_r/activation	  vasti_r/activation	gastroc_r/activation	 soleus_r/activation	tib_ant_r/activation	 ercspn_l/activation	 intobl_l/activation	 extobl_l/activation	    abd_l/activation	    add_l/activation	hamstrings_l/activation	bifemsh_l/activation	glut_max_l/activation	iliopsoas_l/activation	rect_fem_l/activation	  vasti_l/activation	gastroc_l/activation	 soleus_l/activation	tib_ant_l/activation	
          2.57144910	         -1.83404070	          0.29997239	         -4.37133392	          1.80001437	          1.00631557	          0.01046535	         -7.97917735	         -2.32313667	        -15.11727630	        -13.36807760	         10.68524596	         24.31829567	         21.55937148	         -1.27975179	         -9.72504450	         -1.52694974	          0.41514583	          0.22098879	        -14.81833833	          3.48289660	          5.43158332	          0.00999999	          0.00999999	          0.00999999	          0.07086351	          0.00999999	          0.00999999	          0.08411018	          0.03398239	          0.01285715	          0.01165259	          0.00999999	          0.21656106	          0.25635987	          0.00999999	          0.01285715	          0.18747817	          0.07448292	          0.00999999	          0.20646939	          0.02007012	          0.04567823	          0.01285715	          0.08324372	          0.04517609	          0.01658723	          0.00999999	          0.00999999	          0.26037240	
          2.58859210	         -1.94073017	          0.18306645	         -4.19902403	          1.81622895	          1.00416643	          0.00848092	         -8.55127626	         -2.43073456	        -15.82768346	        -13.96503096	         10.35261018	         25.51016552	         20.75458628	         -1.17527751	         -9.95392132	         -1.48754866	         -0.08757001	          0.20799873	        -14.35146204	          3.12583570	          5.45475557	          0.00999999	          0.00999999	          0.01285715	          0.05511596	          0.01285715	          0.02679877	          0.06541891	          0.04565807	          0.00999999	          0.00999999	          0.01452028	          0.20341765	          0.24607140	          0.00999999	          0.00999999	          0.20854956	          0.05793106	          0.02436708	          0.16058702	          0.01561006	          0.08803977	          0.00999999	          0.06474500	          0.03513690	          0.01290116	          0.01285715	          0.01109534	          0.29109275	
          2.60573509	         -2.03307674	          0.13385530	         -3.98089900	          1.83288858	          1.00247737	          0.00638784	         -9.05374430	         -2.64021356	        -16.58882600	        -14.73961706	          9.79980737	         26.77265622	         19.90690836	         -1.03038137	        -10.32383143	         -1.38992889	         -0.87008478	          0.20000293	        -13.84316725	          2.66492021	          5.45592046	          0.00999999	          0.00999999	          0.00999999	          0.04286790	          0.00999999	          0.02624549	          0.05088129	          0.04314547	          0.00999999	          0.00999999	          0.01863930	          0.18238996	          0.22747359	          0.00999999	          0.00999999	          0.18461457	          0.04505741	          0.05397100	          0.12490079	          0.03683589	          0.06847526	          0.00999999	          0.05035713	          0.02732865	          0.01003421	          0.00999999	          0.00999999	          0.32956634	
          2.62287808	         -2.11409709	          0.12132478	         -3.70788513	          1.84966344	          1.00158725	          0.00418441	         -9.39643778	         -2.93718427	        -17.37604299	        -15.80249813	          8.93417488	         28.10344210	         19.14821273	         -0.86926225	        -10.85111752	         -1.48895934	         -1.53613514	          0.17688025	        -13.33383401	          2.13764989	          5.43653505	          0.00999999	          0.00999999	          0.00999999	          0.03334164	          0.00999999	          0.03622056	          0.03957426	          0.03355753	          0.00999999	          0.00999999	          0.02256798	          0.14341981	          0.20383714	          0.00999999	          0.00999999	          0.14358885	          0.03504459	          0.07798238	          0.09714489	          0.04943388	          0.05325844	          0.02487045	          0.03916659	          0.02125558	          0.01831858	          0.00999999	          0.00999999	          0.34765062	
          2.64002108	         -2.18472721	          0.13524316	         -3.39203757	          1.86634987	          1.00170551	          0.00189154	         -9.51495755	         -3.33187595	        -18.15744014	        -17.23699964	          7.72650566	         29.43165011	         18.48737543	         -0.69712887	        -11.41688004	         -1.81073521	         -1.95086746	          0.15447155	        -12.84381868	          1.56129309	          5.39674126	          0.03676948	          0.00999999	          0.00999999	          0.02593234	          0.00999999	          0.05536027	          0.03077993	          0.02610025	          0.00999999	          0.00999999	          0.03565742	          0.11154854	          0.16821512	          0.00999999	          0.00999999	          0.11168002	          0.02725686	          0.09510496	          0.07555700	          0.05120895	          0.04142316	          0.05584193	          0.03046285	          0.01653209	          0.01424776	          0.00999999	          0.00999999	          0.34362409	
          2.65716407	         -2.24400510	          0.17090750	         -3.05390424	          1.88284851	          1.00287253	         -0.00045020	         -9.40110850	         -3.82810075	        -18.90963533	        -19.04315228	          6.21332297	         30.59585466	         17.87483300	         -0.50557105	        -11.85638861	         -2.26606398	         -2.08932875	          0.13834742	        -12.37873669	          0.94685758	          5.34145243	          0.03646105	          0.03022859	          0.00999999	          0.02016956	          0.01285715	          0.06811230	          0.02393990	          0.02030016	          0.00999999	          0.00999999	          0.02773350	          0.08675982	          0.13083375	          0.00999999	          0.00999999	          0.08686208	          0.02119974	          0.10148903	          0.05876650	          0.05631606	          0.03221796	          0.06706409	          0.02369329	          0.01285827	          0.01377713	          0.00999999	          0.00999999	          0.32437908	
          2.67430707	         -2.28980572	          0.19019957	         -2.71192958	          1.89907178	          1.00487158	         -0.00282055	         -8.99643567	         -4.41469943	        -19.61073916	        -21.34127337	          4.50579139	         31.40917170	         17.27282758	         -0.33103355	        -12.14077903	         -2.77481599	         -2.04157550	          0.13523869	        -11.94751284	          0.34703503	          5.27133292	          0.03358455	          0.05441854	          0.00999999	          0.01568741	          0.00999999	          0.07233660	          0.01861989	          0.01578899	          0.00999999	          0.00999999	          0.02157046	          0.06747974	          0.10175940	          0.00999999	          0.00999999	          0.06755928	          0.01648866	          0.10432673	          0.06380646	          0.06291107	          0.02505837	          0.06714434	          0.01842808	          0.01000086	          0.01330130	          0.00999999	          0.00999999	          0.30057618	
          2.69145006	         -2.31864113	          0.14934333	         -2.38098596	          1.91497365	          1.00737630	         -0.00521208	         -8.26124121	         -5.07207871	        -20.27314677	        -24.20745862	          2.68637111	         31.70434533	         16.65294220	         -0.21922368	        -12.30753428	         -3.27561106	         -1.89057602	          0.15088970	        -11.55592192	         -0.17732769	          5.18212572	          0.03226322	          0.07474549	          0.00999999	          0.01220130	          0.00999999	          0.07503766	          0.01448211	          0.01228030	          0.00999999	          0.00999999	          0.01677700	          0.05248415	          0.07914606	          0.00999999	          0.00999999	          0.05254601	          0.01282449	          0.10587968	          0.04962716	          0.06704509	          0.01948981	          0.06978048	          0.01433292	          0.00999999	          0.01364863	          0.00999999	          0.00999999	          0.27292540	
